<mxfile host="app.diagrams.net" modified="2021-04-27T11:05:18.526Z" agent="5.0 (Windows NT 10.0; Win64; x64) AppleWebKit/537.36 (KHTML, like Gecko) Chrome/90.0.4430.85 Safari/537.36 Edg/90.0.818.46" etag="k_wMAOregUacfCxsZ1lx" version="14.6.6" type="github">
  <diagram id="JCKB8MocDSN7x97dPDkK" name="Page-1">
    <mxGraphModel dx="1038" dy="628" grid="1" gridSize="10" guides="1" tooltips="1" connect="1" arrows="1" fold="1" page="1" pageScale="1" pageWidth="1654" pageHeight="2336" math="0" shadow="0">
      <root>
        <mxCell id="0" />
        <mxCell id="1" parent="0" />
        <mxCell id="Dv_WCurl7W9lhUE-oqcY-1" value="" style="rounded=0;whiteSpace=wrap;html=1;" vertex="1" parent="1">
          <mxGeometry x="120" y="520" width="320" height="40" as="geometry" />
        </mxCell>
        <mxCell id="Dv_WCurl7W9lhUE-oqcY-2" value="" style="rounded=0;whiteSpace=wrap;html=1;" vertex="1" parent="1">
          <mxGeometry x="480" y="520" width="320" height="40" as="geometry" />
        </mxCell>
        <mxCell id="Dv_WCurl7W9lhUE-oqcY-3" value="" style="endArrow=none;html=1;" edge="1" parent="1">
          <mxGeometry width="50" height="50" relative="1" as="geometry">
            <mxPoint x="120" y="600" as="sourcePoint" />
            <mxPoint x="800" y="600" as="targetPoint" />
          </mxGeometry>
        </mxCell>
      </root>
    </mxGraphModel>
  </diagram>
</mxfile>
